<svg style="enable-background:new 0 0 64 64;" version="1.1" viewBox="0 0 64 64" xmlns="http://www.w3.org/2000/svg" xmlns:xlink="http://www.w3.org/1999/xlink">
  <g id="_x30_0_headset">
    <g>
      <path d="M63,40.2202c0-5.9472-3.9073-10.9949-9.2881-12.7225v-6.0148c0-10.5703-10.1641-19.8423-21.752-19.8423    s-21.752,9.272-21.752,19.8423v6.0442C4.8693,29.2792,1,34.303,1,40.2202C1,47.5884,6.9941,53.583,14.3623,53.583h3.6738    c1.9336,0,3.5059-1.5728,3.5059-3.5059v-19.71c0-1.8768-1.4827-3.4017-3.3359-3.4926v-5.1373    c0-6.0151,5.8818-12.7432,13.7539-12.7432c7.8701,0,13.75,6.728,13.75,12.7432v5.1458c-1.8132,0.1329-3.252,1.636-3.252,3.4841    v19.71c0,1.9331,1.5723,3.5059,3.5059,3.5059h2.6728l-0.0048,4.5596h-5.6547c-0.3737-1.429-1.6642-2.4917-3.2086-2.4917h-2.0977    c-1.835,0-3.3281,1.4932-3.3281,3.3281s1.4932,3.3281,3.3281,3.3281h2.0977c1.4242,0,2.6327-0.9039,3.1068-2.1646h6.7556    c0.5518,0,0.999-0.4473,1-0.999l0.0059-5.6111C57.5385,53.0181,63,47.2512,63,40.2202z"
       />
    </g>
  </g>
<g id="_x31_9_video_call"/>
<g id="_x31_8_letter_box"/>
<g id="_x31_7_papperplane"/>
<g id="_x31_6_laptop"/>
<g id="_x31_5_connection"/>
<g id="_x31_4_phonebook"/>
<g id="_x31_3_classic_telephone"/>
<g id="_x31_2_sending_mail"/>
<g id="_x31_1_man_talking"/>
<g id="_x31_0_date"/>
<g id="_x30_9_review"/>
<g id="_x30_8_email"/>
<g id="_x30_7_information"/>
<g id="_x30_6_phone_talking"/>
<g id="_x30_5_women_talking"/>
<g id="_x30_4_calling"/>
<g id="_x30_3_women"/>
<g id="_x30_2_writing"/>
<g id="_x30_1_chatting"/>
</svg>