<?xml version="1.0" encoding="utf-8"?>
<!DOCTYPE svg PUBLIC "-//W3C//DTD SVG 1.1//EN" "http://www.w3.org/Graphics/SVG/1.1/DTD/svg11.dtd">
<svg version="1.1" xmlns="http://www.w3.org/2000/svg" xmlns:xlink="http://www.w3.org/1999/xlink" viewBox="0 0 256 256" enable-background="new 0 0 256 256" xml:space="preserve">
<metadata> Svg Vector Icons : http://www.onlinewebfonts.com/icon </metadata>
<g><g><path stroke="black" stroke-width="6" fill="#000000" d="M128,246c65.1,0,118-52.9,118-118c0-65.1-52.9-118-118-118C62.9,10,10,62.9,10,128C10,193.1,62.9,246,128,246L128,246z M128,17.9c60.7,0,110.1,49.4,110.1,110.1c0,60.7-49.4,110.1-110.1,110.1c-60.7,0-110.1-49.4-110.1-110.1C17.9,67.3,67.3,17.9,128,17.9L128,17.9z M126.5,132.5c22.5,0,40.8-18.1,40.8-40.3C167.3,70,149,52,126.5,52C103.9,52,85.6,70,85.6,92.2C85.6,114.4,103.9,132.5,126.5,132.5L126.5,132.5z M126.5,60.3c17.9,0,32.4,14.3,32.4,31.8s-14.5,31.8-32.4,31.8c-17.9,0-32.4-14.3-32.4-31.9C94,74.5,108.6,60.3,126.5,60.3L126.5,60.3z M112.9,204h30.3c27.6,0,51.5,0,51.5-14.9v-3c0-28-23.1-50.7-51.5-50.7h-30.3c-28.4,0-51.5,22.7-51.5,50.7v3C61.4,204,84.1,204,112.9,204L112.9,204z M69.3,186.4c0-23.4,19.4-42.5,43.3-42.5h30.8c23.9,0,43.3,19.1,43.3,42.5v3c0,6.1-28.2,6.1-43.3,6.1h-30.8c-18.3,0-43.3,0-43.3-6.1V186.4L69.3,186.4z"/></g></g>
</svg>